<svg id="visual" viewBox="0 0 900 600" width="900" height="600" xmlns="http://www.w3.org/2000/svg" xmlns:xlink="http://www.w3.org/1999/xlink" version="1.1"><g stroke-width="1" stroke-linejoin="bevel"><path d="M398 332L315 415L368 424Z" fill="#fcaa37" stroke="#fcaa37"></path><path d="M398 332L297 325L315 415Z" fill="#fa9424" stroke="#fa9424"></path><path d="M172 417L286 498L315 415Z" fill="#fcaf3c" stroke="#fcaf3c"></path><path d="M315 415L286 498L368 424Z" fill="#f87d13" stroke="#f87d13"></path><path d="M222 184L214 302L297 325Z" fill="#f9891b" stroke="#f9891b"></path><path d="M297 325L172 417L315 415Z" fill="#fa9424" stroke="#fa9424"></path><path d="M398 332L405 221L297 325Z" fill="#fa9a29" stroke="#fa9a29"></path><path d="M413 536L506 430L368 424Z" fill="#f87d13" stroke="#f87d13"></path><path d="M368 424L506 430L398 332Z" fill="#fba432" stroke="#fba432"></path><path d="M398 332L534 334L405 221Z" fill="#fb9f2d" stroke="#fb9f2d"></path><path d="M286 498L413 536L368 424Z" fill="#fcaa37" stroke="#fcaa37"></path><path d="M405 221L326 184L297 325Z" fill="#f98e20" stroke="#f98e20"></path><path d="M214 302L172 417L297 325Z" fill="#fa9a29" stroke="#fa9a29"></path><path d="M506 430L534 334L398 332Z" fill="#fcaa37" stroke="#fcaa37"></path><path d="M413 536L506 496L506 430Z" fill="#f87d13" stroke="#f87d13"></path><path d="M582 431L575 339L534 334Z" fill="#fba432" stroke="#fba432"></path><path d="M172 417L202 534L286 498Z" fill="#f87d13" stroke="#f87d13"></path><path d="M286 498L388 600L413 536Z" fill="#f7770f" stroke="#f7770f"></path><path d="M326 184L222 184L297 325Z" fill="#f87d13" stroke="#f87d13"></path><path d="M214 302L122 396L172 417Z" fill="#fa9424" stroke="#fa9424"></path><path d="M582 431L534 334L506 430Z" fill="#f87d13" stroke="#f87d13"></path><path d="M534 334L493 169L405 221Z" fill="#fa9424" stroke="#fa9424"></path><path d="M103 326L122 396L214 302Z" fill="#f98e20" stroke="#f98e20"></path><path d="M172 417L81 510L202 534Z" fill="#f98e20" stroke="#f98e20"></path><path d="M284 600L388 600L286 498Z" fill="#fa9a29" stroke="#fa9a29"></path><path d="M413 536L525 600L506 496Z" fill="#fa9a29" stroke="#fa9a29"></path><path d="M506 496L582 431L506 430Z" fill="#fa9424" stroke="#fa9424"></path><path d="M595 477L582 431L506 496Z" fill="#f88317" stroke="#f88317"></path><path d="M202 534L284 600L286 498Z" fill="#fa9a29" stroke="#fa9a29"></path><path d="M576 161L493 169L534 334Z" fill="#f88317" stroke="#f88317"></path><path d="M405 221L426 117L326 184Z" fill="#f87d13" stroke="#f87d13"></path><path d="M326 184L277 126L222 184Z" fill="#fa9424" stroke="#fa9424"></path><path d="M99 165L103 326L214 302Z" fill="#f9891b" stroke="#f9891b"></path><path d="M426 117L277 126L326 184Z" fill="#f98e20" stroke="#f98e20"></path><path d="M493 169L460 135L405 221Z" fill="#fcaa37" stroke="#fcaa37"></path><path d="M460 135L426 117L405 221Z" fill="#fa9424" stroke="#fa9424"></path><path d="M126 600L222 600L202 534Z" fill="#fb9f2d" stroke="#fb9f2d"></path><path d="M202 534L222 600L284 600Z" fill="#fcaa37" stroke="#fcaa37"></path><path d="M525 600L595 477L506 496Z" fill="#fcaf3c" stroke="#fcaf3c"></path><path d="M582 431L695 369L575 339Z" fill="#f98e20" stroke="#f98e20"></path><path d="M388 600L525 600L413 536Z" fill="#f9891b" stroke="#f9891b"></path><path d="M0 494L81 510L122 396Z" fill="#f7770f" stroke="#f7770f"></path><path d="M122 396L81 510L172 417Z" fill="#f88317" stroke="#f88317"></path><path d="M575 339L576 161L534 334Z" fill="#f9891b" stroke="#f9891b"></path><path d="M493 169L597 74L460 135Z" fill="#fa9424" stroke="#fa9424"></path><path d="M521 0L423 0L426 117Z" fill="#f9891b" stroke="#f9891b"></path><path d="M671 187L576 161L575 339Z" fill="#f98e20" stroke="#f98e20"></path><path d="M174 72L99 165L222 184Z" fill="#f7770f" stroke="#f7770f"></path><path d="M222 184L99 165L214 302Z" fill="#fcaf3c" stroke="#fcaf3c"></path><path d="M103 326L0 362L122 396Z" fill="#fcaa37" stroke="#fcaa37"></path><path d="M81 510L126 600L202 534Z" fill="#fba432" stroke="#fba432"></path><path d="M232 0L174 72L277 126Z" fill="#fa9a29" stroke="#fa9a29"></path><path d="M277 126L174 72L222 184Z" fill="#f98e20" stroke="#f98e20"></path><path d="M677 522L695 369L595 477Z" fill="#fb9f2d" stroke="#fb9f2d"></path><path d="M595 477L695 369L582 431Z" fill="#fba432" stroke="#fba432"></path><path d="M525 600L607 600L595 477Z" fill="#f88317" stroke="#f88317"></path><path d="M0 296L0 362L103 326Z" fill="#fba432" stroke="#fba432"></path><path d="M81 510L0 600L126 600Z" fill="#f88317" stroke="#f88317"></path><path d="M99 165L0 296L103 326Z" fill="#fcaa37" stroke="#fcaa37"></path><path d="M607 600L677 522L595 477Z" fill="#fcaa37" stroke="#fcaa37"></path><path d="M718 295L671 187L575 339Z" fill="#f7770f" stroke="#f7770f"></path><path d="M423 0L310 0L426 117Z" fill="#f88317" stroke="#f88317"></path><path d="M426 117L460 135L521 0Z" fill="#f87d13" stroke="#f87d13"></path><path d="M426 117L310 0L277 126Z" fill="#fb9f2d" stroke="#fb9f2d"></path><path d="M0 362L0 494L122 396Z" fill="#f87d13" stroke="#f87d13"></path><path d="M597 74L493 169L576 161Z" fill="#f9891b" stroke="#f9891b"></path><path d="M786 270L718 295L802 377Z" fill="#f9891b" stroke="#f9891b"></path><path d="M695 369L718 295L575 339Z" fill="#f7770f" stroke="#f7770f"></path><path d="M671 187L597 74L576 161Z" fill="#fcaa37" stroke="#fcaa37"></path><path d="M174 72L67 98L99 165Z" fill="#f87d13" stroke="#f87d13"></path><path d="M310 0L232 0L277 126Z" fill="#fa9424" stroke="#fa9424"></path><path d="M117 0L67 98L174 72Z" fill="#fba432" stroke="#fba432"></path><path d="M99 165L0 182L0 296Z" fill="#fa9a29" stroke="#fa9a29"></path><path d="M67 98L0 182L99 165Z" fill="#fba432" stroke="#fba432"></path><path d="M597 74L521 0L460 135Z" fill="#fba432" stroke="#fba432"></path><path d="M0 494L0 600L81 510Z" fill="#fa9424" stroke="#fa9424"></path><path d="M232 0L117 0L174 72Z" fill="#f9891b" stroke="#f9891b"></path><path d="M67 98L0 76L0 182Z" fill="#f9891b" stroke="#f9891b"></path><path d="M711 0L599 0L597 74Z" fill="#f98e20" stroke="#f98e20"></path><path d="M597 74L599 0L521 0Z" fill="#fcaa37" stroke="#fcaa37"></path><path d="M719 109L597 74L671 187Z" fill="#f9891b" stroke="#f9891b"></path><path d="M607 600L729 600L677 522Z" fill="#f87d13" stroke="#f87d13"></path><path d="M805 484L802 377L695 369Z" fill="#fcaa37" stroke="#fcaa37"></path><path d="M802 377L718 295L695 369Z" fill="#fa9a29" stroke="#fa9a29"></path><path d="M718 295L786 270L671 187Z" fill="#f9891b" stroke="#f9891b"></path><path d="M831 202L719 109L671 187Z" fill="#f7770f" stroke="#f7770f"></path><path d="M805 484L695 369L677 522Z" fill="#f88317" stroke="#f88317"></path><path d="M0 0L0 76L67 98Z" fill="#fa9424" stroke="#fa9424"></path><path d="M729 600L805 484L677 522Z" fill="#f98e20" stroke="#f98e20"></path><path d="M117 0L0 0L67 98Z" fill="#f9891b" stroke="#f9891b"></path><path d="M786 270L831 202L671 187Z" fill="#fba432" stroke="#fba432"></path><path d="M719 109L711 0L597 74Z" fill="#fb9f2d" stroke="#fb9f2d"></path><path d="M900 231L831 202L786 270Z" fill="#f88317" stroke="#f88317"></path><path d="M900 297L786 270L802 377Z" fill="#fa9424" stroke="#fa9424"></path><path d="M765 0L711 0L719 109Z" fill="#f98e20" stroke="#f98e20"></path><path d="M729 600L815 600L805 484Z" fill="#fb9f2d" stroke="#fb9f2d"></path><path d="M805 484L900 425L802 377Z" fill="#f87d13" stroke="#f87d13"></path><path d="M831 202L826 104L719 109Z" fill="#fa9424" stroke="#fa9424"></path><path d="M900 511L900 425L805 484Z" fill="#f9891b" stroke="#f9891b"></path><path d="M831 202L900 231L826 104Z" fill="#fba432" stroke="#fba432"></path><path d="M826 104L765 0L719 109Z" fill="#fba432" stroke="#fba432"></path><path d="M900 425L900 297L802 377Z" fill="#fa9424" stroke="#fa9424"></path><path d="M900 297L900 231L786 270Z" fill="#f87d13" stroke="#f87d13"></path><path d="M815 600L900 511L805 484Z" fill="#fa9a29" stroke="#fa9a29"></path><path d="M815 600L900 600L900 511Z" fill="#f87d13" stroke="#f87d13"></path><path d="M900 231L900 67L826 104Z" fill="#fa9a29" stroke="#fa9a29"></path><path d="M826 104L900 0L765 0Z" fill="#f98e20" stroke="#f98e20"></path><path d="M900 67L900 0L826 104Z" fill="#f87d13" stroke="#f87d13"></path></g></svg>